<?xml version="1.0" encoding="utf-8"?>
<!-- Generator: Adobe Illustrator 24.0.2, SVG Export Plug-In . SVG Version: 6.00 Build 0)  -->
<svg version="1.1" id="Capa_1" xmlns="http://www.w3.org/2000/svg" xmlns:xlink="http://www.w3.org/1999/xlink" x="0px" y="0px"
	 viewBox="0 0 797.08 178.98" style="enable-background:new 0 0 797.08 178.98;" xml:space="preserve">
<style type="text/css">
	.st0{fill:#D8060D;}
	.st1{fill:#CC2E72;}
	.st2{fill:#1F140F;}
	.st3{fill:#484746;}
	.st4{fill:none;}
</style>
<g>
	<path class="st2" d="M791.4,70.36c-0.2-0.24-0.48-0.37-0.78-0.37h-16.9l2.65-13.36c0.06-0.32-0.04-0.64-0.25-0.88
		c-0.22-0.24-0.53-0.35-0.85-0.31l-13.3,1.64c-0.43,0.05-0.77,0.37-0.86,0.79l-2.43,12.12h-9.84c-0.48,0-0.89,0.34-0.98,0.81
		l-1.89,9.73c-0.05,0.29,0.02,0.59,0.22,0.82c0.18,0.23,0.46,0.36,0.76,0.36h9.42l-7.31,36.61c-0.8,4.29-1.19,7.73-1.19,10.51
		c0,4.67,1.77,8.57,5.25,11.6c3.45,2.97,8.4,4.47,14.74,4.47c2.67,0,5.63-0.45,8.79-1.35c0.36-0.1,0.64-0.4,0.71-0.77l1.92-9.72
		c0.06-0.34-0.05-0.7-0.31-0.93s-0.63-0.32-0.96-0.21c-2.82,0.86-5.25,1.27-7.42,1.27c-3.08,0-5.2-0.62-6.29-1.84
		c-1.13-1.28-1.66-2.67-1.66-4.27c0-0.65,0.15-2.41,1.11-6.97l7.64-38.4h17.14c0.46,0,0.87-0.33,0.97-0.79l2.1-9.73
		C791.66,70.9,791.59,70.59,791.4,70.36z"/>
	<path class="st2" d="M370.98,70.35c-0.19-0.23-0.48-0.37-0.78-0.37h-12.82c-2.05-0.56-3.97-0.98-5.7-1.22
		c-1.91-0.27-3.61-0.41-5.11-0.41c-8.25,0-16.09,2.7-23.28,8.04c-7.17,5.27-13.31,12.85-18.26,22.52c-4.94,9.64-7.42,19-7.42,27.82
		c0,4.55,1.31,8.74,3.88,12.45c2.65,3.8,6.27,5.73,10.76,5.73c5.99,0,12.42-2.91,19.11-8.66c5.52-4.68,10.72-10.71,15.5-17.96
		l-4.75,23.8c-0.06,0.29,0.01,0.6,0.21,0.83c0.18,0.24,0.47,0.37,0.77,0.37h12.99c0.47,0,0.89-0.34,0.97-0.81l14.12-71.29
		C371.24,70.89,371.17,70.58,370.98,70.35z M330.79,85.61c4.92-3.93,9.78-5.93,14.45-5.93c1.71,0,3.36,0.2,4.94,0.6
		c1.34,0.32,2.67,0.8,3.96,1.43l-3.08,15.6c-19.94,27.27-29.11,33.01-33.3,33.01c-1.47,0-2.47-0.51-3.2-1.63
		c-0.78-1.14-1.18-2.64-1.18-4.46c0-6.24,1.68-13.31,4.97-21.01C321.64,95.54,325.83,89.62,330.79,85.61z"/>
	<path class="st2" d="M288.73,58.99c-3.09-5.35-7.22-9.22-12.32-11.49c-5.07-2.23-12.8-3.36-22.97-3.36H219.3
		c-0.49,0-0.89,0.34-0.98,0.8l-19.33,97.14c-0.05,0.29,0.02,0.6,0.21,0.83c0.19,0.24,0.48,0.37,0.77,0.37h31.06
		c14.12,0,25.54-2.83,33.96-8.41c8.4-5.56,15.3-13.5,20.49-23.61c5.2-10.07,7.82-20.83,7.82-31.95
		C293.31,71.16,291.78,64.32,288.73,58.99z M240.12,56.44c11.33,0,19.39,0.96,23.92,2.84c4.49,1.86,7.66,4.46,9.69,7.93
		c2,3.41,3.01,7.71,3.01,12.8c0,8.93-2.01,17.67-5.95,25.99c-3.95,8.33-9.02,14.63-15.11,18.74c-6.07,4.13-14.79,6.23-25.91,6.23
		h-12.91l14.88-74.54H240.12z"/>
	<path class="st2" d="M504.23,70.35c-0.18-0.23-0.47-0.37-0.77-0.37h-12.84c-2.05-0.56-3.97-0.98-5.71-1.22
		c-1.94-0.28-3.62-0.41-5.13-0.41c-8.2,0-16.03,2.7-23.27,8.04c-7.15,5.26-13.29,12.84-18.25,22.52
		c-4.93,9.65-7.42,19.01-7.42,27.82c0,4.57,1.32,8.76,3.89,12.45c2.64,3.8,6.26,5.73,10.76,5.73c5.99,0,12.42-2.91,19.11-8.66
		c5.52-4.68,10.72-10.7,15.49-17.94l-4.75,23.78c-0.06,0.29,0.02,0.6,0.2,0.83c0.19,0.24,0.47,0.37,0.78,0.37h12.98
		c0.47,0,0.89-0.34,0.98-0.8l14.16-71.3C504.5,70.89,504.43,70.58,504.23,70.35z M464,85.61c4.93-3.93,9.78-5.93,14.45-5.93
		c1.71,0,3.36,0.2,4.96,0.6c1.34,0.32,2.69,0.8,3.97,1.43l-3.12,15.6c-19.89,27.28-29.06,33.01-33.25,33.01
		c-1.47,0-2.49-0.51-3.21-1.62c-0.76-1.14-1.16-2.65-1.16-4.47c0-6.21,1.67-13.28,4.96-21.01C454.96,95.4,459.02,89.63,464,85.61z"
		/>
	<path class="st2" d="M430.9,70.36c-0.18-0.24-0.47-0.37-0.78-0.37h-16.9l2.66-13.36c0.06-0.32-0.03-0.64-0.25-0.88
		c-0.21-0.24-0.54-0.35-0.85-0.31l-13.31,1.64c-0.43,0.05-0.77,0.37-0.86,0.8l-2.4,12.12h-9.87c-0.49,0-0.89,0.34-0.98,0.81
		l-1.89,9.73c-0.05,0.29,0.02,0.59,0.2,0.82c0.2,0.23,0.48,0.36,0.78,0.36h9.43l-7.31,36.6c-0.81,4.23-1.2,7.67-1.2,10.51
		c0,4.67,1.76,8.57,5.26,11.59c3.4,2.98,8.36,4.48,14.72,4.48c2.68,0,5.64-0.45,8.79-1.35c0.36-0.1,0.64-0.4,0.71-0.77l1.9-9.72
		c0.07-0.34-0.05-0.7-0.31-0.93c-0.26-0.24-0.64-0.32-0.96-0.21c-2.72,0.84-5.21,1.27-7.41,1.27c-3.07,0-5.16-0.62-6.25-1.86
		c-1.12-1.23-1.66-2.62-1.66-4.25c0-0.66,0.14-2.44,1.06-6.97l7.64-38.4h17.16c0.47,0,0.89-0.33,0.98-0.79l2.09-9.73
		C431.17,70.9,431.09,70.59,430.9,70.36z"/>
	<path class="st2" d="M575.66,70.82c-6.13-1.59-11.83-2.4-16.93-2.4c-7.55,0-14.94,2.41-21.96,7.17c-7.02,4.71-12.74,11-16.96,18.67
		c-4.25,7.68-6.4,15.95-6.4,24.58c0,8.2,2.11,14.68,6.26,19.24c4.18,4.53,10.22,6.83,17.95,6.83c7.81,0,16.81-2.21,26.74-6.57
		c0.3-0.13,0.52-0.39,0.58-0.71l2.56-12.33c0.08-0.39-0.07-0.79-0.39-1.02c-0.32-0.23-0.74-0.25-1.08-0.06
		c-3.4,1.94-6.66,3.46-9.67,4.52c-3.29,1.11-6.04,1.92-8.48,2.46c-2.64,0.61-4.77,0.91-6.5,0.91c-3.49,0-6.34-1.07-8.71-3.29
		c-2.31-2.1-3.47-5.72-3.47-10.77c0-6.65,1.38-12.97,4.23-19.34c2.87-6.2,6.53-10.9,10.86-13.95c4.29-3.05,9.06-4.6,14.17-4.6
		c4.57,0,9.44,0.98,14.47,2.92c0.27,0.1,0.57,0.09,0.84-0.05c0.25-0.14,0.43-0.39,0.49-0.68l2.13-10.36
		C576.49,71.47,576.18,70.95,575.66,70.82z"/>
	<path class="st2" d="M643.29,75.73c-3.97-4.85-10.28-7.31-18.79-7.31c-8.31,0-15.72,2.25-22.03,6.69
		c-6.18,4.36-11.41,10.84-15.54,19.26c-4.11,8.36-6.2,16.95-6.2,25.54c0,7.03,2.04,13.01,6.06,17.74
		c4.04,4.82,10.25,7.26,18.46,7.26c8.73,0,16.28-2.3,22.45-6.85c6.15-4.57,11.31-11.06,15.36-19.33c4.05-8.3,6.1-16.83,6.1-25.36
		C649.17,86.43,647.19,80.5,643.29,75.73z M608.15,133.19c-3.78,0-6.57-1.28-8.53-3.93c-2.04-2.67-3.07-6.74-3.07-12.1
		c0-9.41,2.53-18.06,7.53-25.71c4.94-7.49,10.76-11.29,17.33-11.29c4.02,0,6.95,1.26,8.94,3.86c2.02,2.6,3.06,6.69,3.06,12.13
		c0,9.35-2.54,17.98-7.55,25.66C620.91,129.47,615.11,133.19,608.15,133.19z"/>
	<path class="st2" d="M725.6,71.87c-2.4-2.3-5.5-3.46-9.2-3.46c-6.61,0-13.21,3.05-19.66,9.07c-5.1,4.81-9.92,10.66-14.36,17.45
		l4.75-23.75c0.05-0.3-0.02-0.6-0.21-0.84c-0.19-0.23-0.47-0.37-0.77-0.37h-12.96c-0.48,0-0.89,0.34-0.99,0.81l-14.18,71.29
		c-0.05,0.29,0.02,0.6,0.22,0.83c0.18,0.24,0.47,0.37,0.76,0.37h12.95c0.48,0,0.88-0.34,0.98-0.8l4.95-24.86
		c8.44-11.98,15.37-20.83,20.57-26.33c4.98-5.27,9.12-7.95,12.33-7.95c0.88,0,1.58,0.33,2.19,1.02c0.65,0.76,0.95,1.71,0.95,2.98
		c0,1.13-0.1,2.26-0.3,3.35l-10.24,51.39c-0.05,0.29,0.02,0.6,0.2,0.83c0.2,0.24,0.48,0.37,0.78,0.37h12.93
		c0.47,0,0.88-0.34,0.98-0.8l10.16-51.04c0.47-2.5,0.71-5.36,0.71-8.52C729.14,77.82,727.98,74.21,725.6,71.87z"/>
	<path class="st0" d="M98.87,1.43c-11.76,0-23.18,2.55-33.92,7.56c-4.31,2.01-8.45,4.42-12.33,7.13l8.35,43.7
		c7.62-8.92,25.67-25.96,52.13-25.96c21.12,0,42.84,10.94,64.66,32.55c-1.24-6.41-3.29-12.66-6.08-18.65
		C158.53,19.62,129.95,1.43,98.87,1.43z"/>
	<path class="st0" d="M135.59,71.65c4.12,10.2,10.37,31.8,1.09,53.86c-8.79,20.91-29.21,36.63-60.72,46.78
		c6.27,1.85,12.76,2.92,19.36,3.19c1.13,0.04,2.28,0.07,3.39,0.07c43.17,0,78.39-33.81,80.18-76.97c0.19-4.76-0.03-9.54-0.66-14.22
		L135.59,71.65z"/>
	<path class="st0" d="M39.13,104.67c-12.03-19.25-13.1-44.98-3.26-76.58c-5.12,4.06-9.72,8.74-13.75,13.98
		C9.04,59.08,3.37,80.16,6.15,101.43c2.78,21.26,13.67,40.18,30.68,53.26c3.76,2.9,7.79,5.46,12,7.65l34.96-27.51
		C73.08,132.31,51.81,124.97,39.13,104.67z"/>
</g>
</svg>
