<?xml version="1.0" encoding="utf-8"?>
<!-- Generator: Adobe Illustrator 24.0.2, SVG Export Plug-In . SVG Version: 6.00 Build 0)  -->
<svg version="1.1" id="Capa_1" xmlns="http://www.w3.org/2000/svg" xmlns:xlink="http://www.w3.org/1999/xlink" x="0px" y="0px"
	 viewBox="0 0 747 191" style="enable-background:new 0 0 747 191;" xml:space="preserve">
<style type="text/css">
	.st0{fill:#D8060D;}
	.st1{fill:#CC2E72;}
	.st2{fill:#1F140F;}
	.st3{fill:#484746;}
	.st4{fill:none;}
</style>
<g>
	<path class="st3" d="M26.77,33.55c11.66-1.91,23.43-2.94,35.03-2.94c11.09,0,22.51,1.56,30.65,6.75
		c7.62,4.5,12.99,11.77,12.99,22.68c0,17.32-11.43,28.05-26.49,32.9v0.53c6.93,3.11,10.05,10.73,11.08,21.29
		c1.56,13.16,2.43,28.4,4.5,33.25H68.9c-1.04-3.13-2.25-13.16-3.29-27.53c-1.21-14.2-6.05-18.53-15.93-18.53h-7.62L33.41,148H4.96
		L26.77,33.55z M45.88,83.24h10.22c13.5,0,23.37-8.14,23.37-19.56c0-9.35-7.8-13.51-17.83-13.51c-4.68,0-7.62,0.35-9.7,0.86
		L45.88,83.24z"/>
	<path class="st3" d="M172.62,182.29l16.45-86.24c1.91-10.04,3.81-24.76,4.85-33.41h22.34l-1.56,12.98h0.34
		c6.93-9.17,16.97-14.2,27.18-14.2c18.36,0,27.36,14.72,27.36,32.21c0,29.26-19.56,56.28-49.18,56.28c-6.75,0-12.64-1.74-15.58-3.47
		h-0.52l-6.75,35.85H172.62z M208.29,127.05c2.76,2.42,6.41,3.98,11.43,3.98c13.33,0,23.72-18.87,23.72-35.49
		c0-6.76-2.94-13.85-10.9-13.85c-9.35,0-18,10.38-21.12,27L208.29,127.05z"/>
	<g>
		<path class="st1" d="M377.12,80.46c-14.38,0-21.65,20.78-21.65,33.95c0,9.87,5.02,16.45,13.51,16.45h0.17
			c13.51,0,21.29-19.9,21.29-34.28C390.44,88.61,386.98,80.46,377.12,80.46z"/>
		<path class="st1" d="M440.54,6.22C378.1,28.37,346.5,53.28,332.9,66.6c-2.85,2.54-5.49,5.42-7.84,8.62
			c-0.51,0.66-0.76,1.03-0.76,1.03c-17.65,25.18-11.55,59.9,13.64,77.56c25.18,17.65,59.9,11.55,77.56-13.64
			c0,0,0.26-0.35,0.71-1.06c2.2-3.3,4.01-6.76,5.43-10.32c7.89-17.32,20.53-55.53,20.06-121.77L440.54,6.22z M366.04,149.91h-0.17
			c-21.65,0-36.02-14.03-36.02-34.98c0-29.26,20.44-53.5,50.56-53.5c22.86,0,36.02,15.58,36.02,34.97
			C416.42,127.23,395.13,149.91,366.04,149.91z"/>
	</g>
	<path class="st3" d="M517.17,25.06l-17.14,90.04c-1.9,10.91-3.46,22.85-3.98,32.9h-22.69l1.22-13.68h-0.35
		c-7.45,11.26-17.83,15.59-27.88,15.59c-14.37,0-26.14-11.43-26.14-31.86c0-29.44,21.3-56.63,53.33-56.63
		c3.46,0,7.96,0.69,11.42,2.08l7.46-38.44H517.17z M481.5,83.41c-2.08-1.73-5.71-2.94-9.87-2.94c-14.89,0-25.45,17.14-25.45,33.42
		c0,10.22,4.33,15.93,11.6,15.93c7.26,0,16.11-7.63,19.21-23.72L481.5,83.41z"/>
	<path class="st3" d="M584.35,148H554.6c0,0,10.01-10.73,10.36-16.79h-0.35c-7.96,14.02-18.87,18.7-28.74,18.7
		c-15.23,0-25.63-11.78-25.63-29.44c0-28.57,19.05-59.05,60.6-59.05c10.22,0,20.95,1.9,27.87,4.16 M570.67,80.99
		c-1.9-0.34-3.98-0.69-6.58-0.69c-16.1,0-27.87,19.74-27.87,35.5c0,8.31,3.29,14.03,10.21,14.03c7.45,0,16.98-8.48,20.78-29.27
		L570.67,80.99z"/>
	<path class="st3" d="M644.78,40.47l-4.33,22.85h18.18l-3.81,19.05h-18.01l-5.72,28.57c-0.69,3.46-1.38,7.79-1.38,10.73
		c0,4.16,1.72,7.1,7.26,7.1c2.08,0,4.67,0,6.75-0.35L640.97,148c-3.29,1.21-9.53,1.91-14.72,1.91c-15.07,0-22.16-7.62-22.16-18.35
		c0-4.5,0.52-9.18,1.9-15.59l6.41-33.58h-10.74l3.47-19.05h10.9l3.11-15.93L644.78,40.47z"/>
	<path class="st3" d="M729.21,76.25c0,0,0.24-0.36,0.76-1.03c2.35-3.2,4.97-6.08,7.83-8.62c0.95-0.93,1.99-1.92,3.11-2.96
		c-15.78-1.31-23.12-2.22-30.21-2.22c-41.56,0-60.6,30.48-60.6,59.05c0,17.66,10.39,29.44,25.63,29.44c9.87,0,20.78-4.68,28.74-18.7
		h0.35c-0.35,6.06-10.37,16.79-10.37,16.79h41.4C716.68,129.27,713.33,98.9,729.21,76.25 M707.08,100.56
		c-3.82,20.78-13.34,29.27-20.78,29.27c-6.93,0-10.21-5.71-10.21-14.03c0-15.76,11.77-35.5,27.87-35.5c2.59,0,4.67,0.35,6.58,0.69
		L707.08,100.56z"/>
	<path class="st3" d="M145.09,130.52c-7.27,0-12.99-2.26-16.27-6.59c-1.74-2.42-2.6-6.23-2.6-8.65c33.94,0.86,54.89-6.93,54.89-28.4
		c0-15.76-12.29-25.46-29.43-25.46c-30.65,0-49.35,26.84-49.35,52.64c0,22.16,12.47,35.84,36.7,35.84c5.57,0,12.17-0.62,18.69-2.18
		l3.71-19.66C156.51,129.61,151.11,130.52,145.09,130.52 M148.55,79.61c5.71,0,9.17,2.94,9.17,7.1v0.17
		c0,7.79-9.69,10.39-29.09,10.22C130.37,89.3,136.95,79.61,148.55,79.61"/>
	<rect x="-50.56" y="-32.55" class="st4" width="848.12" height="294.11"/>
	<path class="st3" d="M284.31,63.33h21.47c-0.35,5.71-0.87,11.43-1.56,17.49h0.69c5.89-11.43,15.24-19.39,26.84-19.39
		c1.74,0,3.29,0.17,4.68,0.17l-4.85,24.41c-1.04-0.17-2.43-0.17-3.81-0.17c-15.76,0-23.38,14.03-26.5,30.65L295.38,148h-25.11
		L284.31,63.33z"/>
</g>
</svg>
